<?xml version="1.0" encoding="utf-8"?>
<!-- Generator: Adobe Illustrator 19.1.0, SVG Export Plug-In . SVG Version: 6.00 Build 0)  -->
<!DOCTYPE svg PUBLIC "-//W3C//DTD SVG 1.1//EN" "http://www.w3.org/Graphics/SVG/1.1/DTD/svg11.dtd">
<svg version="1.1" id="Layer_1" xmlns="http://www.w3.org/2000/svg" xmlns:xlink="http://www.w3.org/1999/xlink" x="0px" y="0px"
	 viewBox="0 0 180 180" style="enable-background:new 0 0 180 180;" xml:space="preserve">
<style type="text/css">
	.st0{fill:#231F20;}
	.st1{fill:#FFFFFF;}
</style>
<rect class="st0" width="180" height="180"/>
<g>
	<path class="st1" d="M74.9,160.3v-35.6H14.1V113l58.4-83.6h19.1v81.4h18.3v13.9H91.6v35.6H74.9z M74.9,110.8V67.1
		c0-6.9,0.2-13.7,0.6-20.5h-0.6c-4,7.7-7.2,13.3-10.9,19.3l-32,44.5v0.4H74.9z"/>
	<path class="st1" d="M163.3,34.6h-49.9l-5,33.6c3-0.4,5.8-0.8,10.7-0.8c10.1,0,20.1,2.2,28.2,7c10.3,5.8,18.7,17.1,18.7,33.6
		c0,25.6-20.3,44.7-48.7,44.7c-14.3,0-26.4-4-32.6-8.1l4.4-13.5c5.4,3.2,16.1,7.2,28,7.2c16.7,0,31-10.9,31-28.4
		c-0.2-16.9-11.5-29-37.7-29c-7.5,0-13.3,0.8-18.1,1.4l8.5-62.8h62.6V34.6z"/>
</g>
</svg>
