<?xml version="1.0"?>
<svg xmlns="http://www.w3.org/2000/svg"
xmlns:xlink="http://www.w3.org/1999/xlink" xmlns:cml="http://www.xml-cml.org/schema" width="3000" height="1474.1358523923" viewBox="0 0 638.426549 313.709155" x="0" y="0"  font-family="sans-serif" stroke="rgb(0,0,0)" stroke-width="1.000000"  stroke-linecap="round">
<rect x="0%" y="0%" width="100%" height="1474" stroke-width="0" fill="rgb(255,255,255)"  />
<line x1="588.7" y1="162.8" x2="565.3" y2="176.3" stroke="rgb(0,0,0)"  stroke-width="2"/>
<line x1="585.7" y1="157.6" x2="562.3" y2="171.1" stroke="rgb(0,0,0)"  stroke-width="2"/>
<line x1="401.8" y1="160.2" x2="425.2" y2="173.7" stroke="rgb(0,0,0)"  stroke-width="2"/>
<line x1="529.1" y1="273.7" x2="529.1" y2="233.7" stroke="rgb(0,0,0)"  stroke-width="2"/>
<line x1="415.5" y1="102.8" x2="392.1" y2="116.3" stroke="rgb(0,0,0)"  stroke-width="2"/>
<line x1="412.5" y1="97.6" x2="389.1" y2="111.1" stroke="rgb(0,0,0)"  stroke-width="2"/>
<line x1="355.9" y1="93.7" x2="390.6" y2="113.7" stroke="rgb(0,0,0)"  stroke-width="2"/>
<line x1="390.6" y1="140.7" x2="390.6" y2="113.7" stroke="rgb(0,0,0)"  stroke-width="2"/>
<line x1="329.1" y1="169.4" x2="309.1" y2="151.3" stroke="rgb(0,0,0)"  stroke-width="2"/>
<line x1="333.2" y1="164.9" x2="313.1" y2="146.9" stroke="rgb(0,0,0)"  stroke-width="2"/>
<line x1="273.0" y1="161.5" x2="311.1" y2="149.1" stroke="rgb(0,0,0)"  stroke-width="2"/>
<line x1="273.0" y1="161.5" x2="253.0" y2="143.4" stroke="rgb(0,0,0)"  stroke-width="2"/>
<line x1="316.7" y1="122.7" x2="311.1" y2="149.1" stroke="rgb(0,0,0)"  stroke-width="2"/>
<line x1="196.7" y1="172.8" x2="202.3" y2="146.4" stroke="rgb(0,0,0)"  stroke-width="2"/>
<line x1="202.6" y1="174.1" x2="208.2" y2="147.7" stroke="rgb(0,0,0)"  stroke-width="2"/>
<line x1="185.2" y1="129.0" x2="205.3" y2="147.1" stroke="rgb(0,0,0)"  stroke-width="2"/>
<line x1="137.5" y1="132.7" x2="163.2" y2="124.3" stroke="rgb(0,0,0)"  stroke-width="2"/>
<line x1="107.8" y1="105.9" x2="137.5" y2="132.7" stroke="rgb(0,0,0)"  stroke-width="2"/>
<line x1="230.9" y1="138.7" x2="205.3" y2="147.1" stroke="rgb(0,0,0)"  stroke-width="2"/>
<line x1="355.9" y1="93.7" x2="351.8" y2="53.9" stroke="rgb(0,0,0)"  stroke-width="2"/>
<line x1="351.8" y1="53.9" x2="312.6" y2="45.6" stroke="rgb(0,0,0)"  stroke-width="2"/>
<line x1="312.6" y1="45.6" x2="292.6" y2="80.3" stroke="rgb(0,0,0)"  stroke-width="2"/>
<line x1="292.6" y1="80.3" x2="310.7" y2="100.3" stroke="rgb(0,0,0)"  stroke-width="2"/>
<line x1="331.3" y1="104.7" x2="355.9" y2="93.7" stroke="rgb(0,0,0)"  stroke-width="2"/>
<line x1="494.5" y1="173.7" x2="459.9" y2="153.7" stroke="rgb(0,0,0)"  stroke-width="2"/>
<line x1="485.7" y1="176.9" x2="461.5" y2="162.9" stroke="rgb(0,0,0)"  stroke-width="2"/>
<line x1="459.9" y1="153.7" x2="425.2" y2="173.7" stroke="rgb(0,0,0)"  stroke-width="2"/>
<line x1="425.2" y1="173.7" x2="425.2" y2="213.7" stroke="rgb(0,0,0)"  stroke-width="2"/>
<line x1="432.4" y1="179.7" x2="432.4" y2="207.7" stroke="rgb(0,0,0)"  stroke-width="2"/>
<line x1="425.2" y1="213.7" x2="459.9" y2="233.7" stroke="rgb(0,0,0)"  stroke-width="2"/>
<line x1="459.9" y1="233.7" x2="494.5" y2="213.7" stroke="rgb(0,0,0)"  stroke-width="2"/>
<line x1="461.5" y1="224.5" x2="485.7" y2="210.5" stroke="rgb(0,0,0)"  stroke-width="2"/>
<line x1="494.5" y1="213.7" x2="494.5" y2="173.7" stroke="rgb(0,0,0)"  stroke-width="2"/>
<line x1="563.8" y1="213.7" x2="563.8" y2="173.7" stroke="rgb(0,0,0)"  stroke-width="2"/>
<line x1="563.8" y1="173.7" x2="540.4" y2="160.2" stroke="rgb(0,0,0)"  stroke-width="2"/>
<line x1="517.9" y1="160.2" x2="494.5" y2="173.7" stroke="rgb(0,0,0)"  stroke-width="2"/>
<line x1="494.5" y1="213.7" x2="529.1" y2="233.7" stroke="rgb(0,0,0)"  stroke-width="2"/>
<line x1="529.1" y1="233.7" x2="563.8" y2="213.7" stroke="rgb(0,0,0)"  stroke-width="2"/>
<line x1="530.7" y1="224.5" x2="555.0" y2="210.5" stroke="rgb(0,0,0)"  stroke-width="2"/>
<line x1="107.8" y1="105.9" x2="69.7" y2="118.3" stroke="rgb(0,0,0)"  stroke-width="2"/>
<line x1="99.8" y1="100.9" x2="73.2" y2="109.6" stroke="rgb(0,0,0)"  stroke-width="2"/>
<line x1="69.7" y1="118.3" x2="40.0" y2="91.5" stroke="rgb(0,0,0)"  stroke-width="2"/>
<line x1="40.0" y1="91.5" x2="48.3" y2="52.4" stroke="rgb(0,0,0)"  stroke-width="2"/>
<line x1="48.3" y1="87.1" x2="54.1" y2="59.7" stroke="rgb(0,0,0)"  stroke-width="2"/>
<line x1="48.3" y1="52.4" x2="86.4" y2="40.0" stroke="rgb(0,0,0)"  stroke-width="2"/>
<line x1="86.4" y1="40.0" x2="116.1" y2="66.8" stroke="rgb(0,0,0)"  stroke-width="2"/>
<line x1="86.0" y1="49.4" x2="106.8" y2="68.1" stroke="rgb(0,0,0)"  stroke-width="2"/>
<line x1="116.1" y1="66.8" x2="107.8" y2="105.9" stroke="rgb(0,0,0)"  stroke-width="2"/>
<text x="523.143797" y="161.715574" fill="rgb(0,0,0)"  stroke="rgb(0,0,0)" stroke-width="1" font-size="16" >O</text>
<text x="592.426549" y="161.719734" fill="rgb(0,0,0)"  stroke="rgb(0,0,0)" stroke-width="1" font-size="16" >O</text>
<text x="372.578294" y="161.711413" fill="rgb(0,0,0)"  stroke="rgb(0,0,0)" stroke-width="1" font-size="16" >HN</text>
<text x="419.221750" y="101.710462" fill="rgb(0,0,0)"  stroke="rgb(0,0,0)" stroke-width="1" font-size="16" >O</text>
<text x="313.398411" y="117.981695" fill="rgb(0,0,0)"  stroke="rgb(0,0,0)" stroke-width="1" font-size="16" >N</text>
<text x="334.803549" y="183.873739" fill="rgb(0,0,0)"  stroke="rgb(0,0,0)" stroke-width="1" font-size="16" >O</text>
<text x="237.309284" y="142.702653" fill="rgb(0,0,0)"  stroke="rgb(0,0,0)" stroke-width="1" font-size="16" >N</text>
<text x="237.309284" y="126.702653" fill="rgb(0,0,0)"  stroke="rgb(0,0,0)" stroke-width="1" font-size="16" >H</text>
<text x="190.950207" y="194.187313" fill="rgb(0,0,0)"  stroke="rgb(0,0,0)" stroke-width="1" font-size="16" >O</text>
<text x="169.540909" y="128.295268" fill="rgb(0,0,0)"  stroke="rgb(0,0,0)" stroke-width="1" font-size="16" >O</text>
<text font-size="18.000000" fill ="black" font-family="sans-serif"
x="10.000000" y="20.000000" ></text>
<title>Z-Gly-Pro-AMC *CAS 68542-93-8*</title>
</svg>
