<?xml version="1.0" encoding="utf-8"?>
<!-- Generator: Adobe Illustrator 19.1.0, SVG Export Plug-In . SVG Version: 6.00 Build 0)  -->
<!DOCTYPE svg PUBLIC "-//W3C//DTD SVG 1.1//EN" "http://www.w3.org/Graphics/SVG/1.1/DTD/svg11.dtd">
<svg version="1.1" id="Layer_1" xmlns="http://www.w3.org/2000/svg" xmlns:xlink="http://www.w3.org/1999/xlink" x="0px" y="0px"
	 viewBox="0 0 30 30" style="enable-background:new 0 0 30 30;" xml:space="preserve">
<style type="text/css">
	.st0{fill:#231F20;}
	.st1{fill:#FFFFFF;}
</style>
<rect class="st0" width="30" height="30"/>
<g>
	<path class="st1" d="M12.5,26.7v-5.9H2.3v-1.9l9.7-13.9h3.2v13.6h3.1v2.3h-3.1v5.9H12.5z M12.5,18.5v-7.3c0-1.1,0-2.3,0.1-3.4h-0.1
		C11.8,9,11.3,10,10.7,11l-5.3,7.4v0.1H12.5z"/>
	<path class="st1" d="M27.2,5.8h-8.3l-0.8,5.6c0.5-0.1,1-0.1,1.8-0.1c1.7,0,3.4,0.4,4.7,1.2c1.7,1,3.1,2.9,3.1,5.6
		c0,4.3-3.4,7.5-8.1,7.5c-2.4,0-4.4-0.7-5.4-1.3l0.7-2.2c0.9,0.5,2.7,1.2,4.7,1.2c2.8,0,5.2-1.8,5.2-4.7c0-2.8-1.9-4.8-6.3-4.8
		c-1.2,0-2.2,0.1-3,0.2l1.4-10.5h10.4V5.8z"/>
</g>
</svg>
